<svg viewBox="0 0 200 200" xml:space="preserve" xmlns="http://www.w3.org/2000/svg"><g fill="#f0821b" class="fill-5e889e"><path d="M117.474 52.424h7.931v6.173a28.786 28.786 0 0 1 1.839-.063c15.609 0 28.483 11.945 29.95 27.179a42.853 42.853 0 0 1 2.232-.057c2.478 0 4.908.206 7.282.581V52.424h7.931a3.393 3.393 0 0 0 2.399-5.794L148.46 18.047a3.4 3.4 0 0 0-4.805 0L115.071 46.63a3.398 3.398 0 0 0-.734 3.7 3.398 3.398 0 0 0 3.137 2.094z"></path><path d="M159.426 91.081a40.74 40.74 0 0 0-7.729.745c.135-1.049.213-2.116.213-3.2 0-13.622-11.046-24.667-24.667-24.667a24.524 24.524 0 0 0-13.494 4.022c-6.318-17.668-23.2-30.312-43.041-30.312-25.237 0-45.702 20.46-45.702 45.702 0 1.8.117 3.575.323 5.326-8.519.755-15.202 7.902-15.202 16.62 0 3.905 1.343 7.487 3.59 10.333C5.446 121.194 0 130.624 0 141.329c0 17.065 13.834 30.899 30.9 30.899h34.479l-15.025-15.024a8.789 8.789 0 0 1-1.91-9.61 8.79 8.79 0 0 1 8.146-5.442h2.505v-32.488c0-2.353.918-4.567 2.583-6.232a8.753 8.753 0 0 1 6.237-2.587h34.514a8.75 8.75 0 0 1 6.237 2.587 8.753 8.753 0 0 1 2.583 6.232v32.488h2.505a8.79 8.79 0 0 1 8.147 5.446 8.786 8.786 0 0 1-1.91 9.606l-15.025 15.024h54.458c22.406 0 40.574-18.164 40.574-40.573.002-22.41-18.166-40.574-40.572-40.574z"></path><path d="M116.893 149.671a3.394 3.394 0 0 0-3.137-2.095h-7.927v-37.913c0-.868-.337-1.736-.999-2.398a3.37 3.37 0 0 0-2.399-.996H67.917c-.868 0-1.736.333-2.399.996a3.363 3.363 0 0 0-.996 2.398v37.913h-7.931a3.395 3.395 0 0 0-2.399 5.794l28.583 28.582a3.39 3.39 0 0 0 4.801 0l28.583-28.582a3.389 3.389 0 0 0 .734-3.699z"></path></g></svg>