<svg viewBox="0 0 64 64" xml:space="preserve" xmlns="http://www.w3.org/2000/svg" enable-background="new 0 0 64 64"><path d="M17.1 59v-1.2c0-2.8-2.3-5.2-5.2-5.2h-.5c-2.8 0-5.2 2.3-5.2 5.2V59H5l.2-6.1c0-.1-.1-.9 1.3-1l2.3-.5c.1-.1.5-.2.8-.5 0 0 .1-.1.2-.1h3.6c.1 0 .1 0 .2.1.3.2.7.4.8.5l2.3.5c1.4.1 1.3 1 1.3 1l.2 6.1h-1.1zM14.5 45c0-.5-.1-1-.4-1.5-.5-.9-1.5-1.2-2.5-1.2s-2 .4-2.5 1.2c-.3.5-.4 1-.4 1.5 0 .9.1 1.9.6 2.7.3.6.7 1.1 1.2 1.4.4.2.8.4 1.1.4.4 0 .8-.1 1.1-.4.5-.3.9-.9 1.2-1.4.5-.9.7-1.8.6-2.7z" fill="#f0821b" class="fill-393938"></path><path d="M16.5 57.8V59H6.8v-1.2c0-2.5 2.1-4.6 4.6-4.6h.5c2.5 0 4.6 2.1 4.6 4.6zM37.4 59v-1.2c0-2.8-2.3-5.2-5.2-5.2h-.5c-2.8 0-5.2 2.3-5.2 5.2V59h-1.2l.2-6.1c0-.1-.1-.9 1.3-1l2.3-.5c.1-.1.5-.2.8-.5 0 0 .1-.1.2-.1h3.6c.1 0 .1 0 .2.1.3.2.7.4.8.5l2.3.5c1.4.1 1.3 1 1.3 1l.2 6.1h-1.1zM34.9 45c0-.5-.1-1-.4-1.5-.5-.9-1.5-1.2-2.5-1.3-1 0-2 .4-2.5 1.2-.3.5-.4 1-.4 1.5 0 .9.1 1.9.6 2.7.3.6.7 1.1 1.2 1.4.4.2.8.4 1.1.4.4 0 .8-.1 1.1-.4.5-.3.9-.9 1.2-1.4.4-.8.6-1.7.6-2.6z" fill="#f0821b" class="fill-393938"></path><path d="M36.9 57.8V59h-9.7v-1.2c0-2.5 2.1-4.6 4.6-4.6h.5c2.5 0 4.6 2.1 4.6 4.6zM57.8 59v-1.2c0-2.8-2.3-5.2-5.2-5.2h-.5c-2.8 0-5.2 2.3-5.2 5.2V59h-1.2l.2-6.1c0-.1-.1-.9 1.3-1l2.3-.5c.1-.1.5-.2.8-.5 0 0 .1-.1.2-.1h3.6c.1 0 .1 0 .2.1.3.2.7.4.8.5l2.3.5c1.4.1 1.3 1 1.3 1L59 59h-1.2zM55.3 45c0-.5-.1-1-.4-1.5-.5-.9-1.5-1.2-2.5-1.2s-2 .4-2.5 1.2c-.3.5-.4 1-.4 1.5 0 .9.1 1.9.6 2.7.3.6.7 1.1 1.2 1.4.4.2.8.4 1.1.4.4 0 .8-.1 1.1-.4.5-.3.9-.9 1.2-1.4.4-.9.6-1.8.6-2.7z" fill="#f0821b" class="fill-393938"></path><path d="M57.2 57.8V59h-9.7v-1.2c0-2.5 2.1-4.6 4.6-4.6h.5c2.6 0 4.6 2.1 4.6 4.6zM43.8 21.9l-2.7 5.9c-.2.4-.7.7-1.2.7h-1l.4-2.5v-1.8c0-.9-.8-1.7-1.7-1.7H26.4c-.9 0-1.7.8-1.7 1.7v1.7l.4 2.6h-1c-.5 0-1-.3-1.2-.7l-2.7-5.9c-.2-.5.2-1.1.9-1.1h.8v-5.2c0-.8.3-1.2.9-1.6 0-.3.2-.5.4-.6l2.1-1.2c.1 0 .2-.1.3-.1.3 0 .6.2.7.4.1.3 0 .7-.4.9l-2.1 1.2c-.2.1-.5.1-.6-.1-.4.3-.5.5-.5 1v5.2H43c.6.1 1.1.7.8 1.2z" fill="#f0821b" class="fill-393938"></path><path d="M35.6 38.1c.6-3.2 2.1-9 2.1-9l.5-3.1v-1.7c0-.3-.3-.6-.6-.6H26.4c-.3 0-.6.3-.6.6V26l.5 3.1s1.5 5.8 2.1 9h-2.7v2.8h12.5v-2.8h-2.6zm-7.1-8.6-.5-2.8h8l-.5 2.8c-1.1 5.8-1.7 6.9-2 8.6h-3c-.3-1.7-.9-2.8-2-8.6zM31 15.6c0 .1.2.1.3.1h1.5c.1 0 .2 0 .3-.1.2-.3.4-.7.6-1 .4-.8-3.6-.8-3.2 0 .1.3.3.7.5 1zM33 19.7c-.1-1-.2-2-.3-3.1 0-.2 0-.4-.3-.4h-.8c-.2 0-.3.3-.3.4-.1 1-.2 2-.3 3.1 0 .2.1.4.4.4h1.2c.2 0 .4-.2.4-.4zM29.7 20.1c-1.5-.2-2.9-.7-4.2-1.3 0-.3.3-2.3.6-2.9.1-.2.2-.3.4-.4 0 0 1.8-.5 2.3-.8.3-.2.7 0 .7.4 0 .9.1 2.5.6 4.6.1.2-.1.4-.4.4zM38.5 18.8c-1.3.6-2.7 1.1-4.2 1.3-.3 0-.5-.2-.4-.4.4-2.2.5-3.7.6-4.6 0-.3.4-.6.7-.4.5.3 2.2.8 2.2.8.3.1.5.3.6.5.2.6.5 2.5.5 2.8zM34.6 10.4c-.1-.6 0-1.2-.1-1.8-.1-.8-.5-1.2-1.2-1.5 0-.1-.1-.1-.2-.1-.7-.2-1.4-.2-2.2 0-.1 0-.2.1-.3.1-.7.3-1.1.8-1.2 1.5-.1.6.1 1.2-.1 1.8-.1.4.1.7.4 1l.1.1c.3.8 1.2 1.6 2.1 1.6.9 0 1.9-.8 2.2-1.6 0 0 0-.1.1-.1.3-.3.5-.7.4-1zM45.2 5c-2.7 0-4.9 2.2-4.9 4.9s2.2 4.9 4.9 4.9 4.9-2.2 4.9-4.9S47.9 5 45.2 5zm0 1.1c.8 0 1.6.3 2.2.7L42.2 12c-.5-.6-.7-1.4-.7-2.2-.1-2 1.6-3.7 3.7-3.7zm0 7.5c-.8 0-1.6-.3-2.2-.7l5.2-5.2c.5.6.7 1.4.7 2.2 0 2.1-1.7 3.7-3.7 3.7z" fill="#f0821b" class="fill-393938"></path></svg>