<svg viewBox="0 0 512 512" xml:space="preserve" xmlns="http://www.w3.org/2000/svg" enable-background="new 0 0 512 512"><path d="M279.308 189.43h-46.615c.189-.434.297-.865.297-1.353v-20.495h46.021v20.495c0 .487.107.919.297 1.353M256.001 43.418c12.897 0 23.36 10.437 23.36 23.361 0 12.898-10.463 23.361-23.36 23.361-12.899 0-23.363-10.463-23.363-23.361 0-12.925 10.464-23.361 23.363-23.361zm112.05 224.154-23.281-40.369c.432-.027.893-.189 1.299-.406l17.764-10.274 23.012 39.883-17.766 10.248c-.405.242-.759.54-1.028.918zm114.809-93.176c6.461 11.167 2.621 25.444-8.546 31.906-11.167 6.436-25.47 2.622-31.904-8.544-6.463-11.194-2.624-25.472 8.544-31.934 11.167-6.435 25.443-2.623 31.906 8.572zm-148.527 34.772c-.894-1.596-.351-3.623 1.216-4.543l62.759-36.232c3.435-1.974 7.489-2.108 11.248-.703 3.543 1.324 6.842 4.029 9.005 7.787l31.203 54.025c2.164 3.758 2.866 7.976 2.244 11.707-.675 3.976-2.813 7.41-6.246 9.41l-62.73 36.205a3.318 3.318 0 0 1-4.543-1.217l-7.383-12.789c.46-.027.893-.162 1.299-.405 16.142-9.329 32.285-18.63 48.428-27.958 1.568-.92 2.135-2.948 1.216-4.543a3.318 3.318 0 0 0-4.542-1.217l-16.873 9.734-19.387-33.557c-.92-1.568-2.947-2.136-4.543-1.216-1.568.919-2.136 2.974-1.216 4.542l19.386 33.557-2.27 1.324-23.011-39.856 24.901-14.385c1.569-.919 2.138-2.946 1.219-4.542-.92-1.596-2.975-2.137-4.543-1.217-16.143 9.328-32.285 18.63-48.428 27.959a3.308 3.308 0 0 0-1.027.919l-7.382-12.789zm10.437 174.349 23.281-40.343c.27.352.623.677 1.027.893l17.766 10.275-23.012 39.856-17.764-10.249a3.366 3.366 0 0 0-1.298-.432zm138.09 52.835c-6.437 11.167-20.739 15.007-31.906 8.545-11.168-6.463-15.007-20.739-8.544-31.907 6.435-11.194 20.737-15.007 31.904-8.544 11.167 6.435 15.007 20.712 8.546 31.906zm-104.372-111.24a3.32 3.32 0 0 1 4.543-1.217l62.73 36.232c3.434 1.974 5.598 5.435 6.246 9.382.622 3.732-.08 7.951-2.244 11.709l-31.203 54.024c-2.163 3.759-5.462 6.462-9.005 7.787-3.759 1.406-7.813 1.298-11.248-.703l-62.759-36.206c-1.566-.918-2.109-2.974-1.216-4.542l7.382-12.789a3.76 3.76 0 0 0 1.027.919c16.143 9.301 32.285 18.631 48.428 27.932a3.32 3.32 0 0 0 4.543-1.217c.919-1.568.379-3.623-1.219-4.516l-16.871-9.762 19.359-33.555c.92-1.596.379-3.623-1.216-4.543s-3.624-.379-4.543 1.217l-19.36 33.555-2.271-1.297 23.011-39.855 24.902 14.357a3.318 3.318 0 0 0 4.542-1.217c.919-1.568.379-3.623-1.216-4.516-16.143-9.328-32.286-18.657-48.428-27.959a3.203 3.203 0 0 0-1.299-.432l7.385-12.788zm-234.567 18.062 23.309 40.343a3.352 3.352 0 0 0-1.297.433l-17.765 10.249-23.012-39.856 17.765-10.248a3.28 3.28 0 0 0 1-.921zM29.14 436.352c-6.461-11.167-2.622-25.471 8.546-31.906 11.167-6.463 25.47-2.623 31.906 8.544 6.461 11.168 2.622 25.472-8.545 31.907-11.168 6.461-25.444 2.622-31.907-8.545zm148.527-34.773c.893 1.568.351 3.624-1.216 4.542l-62.759 36.206c-3.434 2.001-7.489 2.109-11.248.703-3.543-1.325-6.842-4.028-9.003-7.787l-31.205-54.024c-2.162-3.758-2.866-7.977-2.245-11.682.677-3.975 2.813-7.436 6.247-9.409l62.73-36.232a3.32 3.32 0 0 1 4.543 1.217l7.382 12.79c-.46.053-.893.188-1.298.432a46290.929 46290.929 0 0 0-48.428 27.959c-1.569.893-2.136 2.947-1.216 4.516a3.318 3.318 0 0 0 4.542 1.217l16.874-9.734 19.387 33.556a3.32 3.32 0 0 0 4.543 1.217c1.569-.919 2.136-2.947 1.216-4.542l-19.386-33.557 2.271-1.297 23.012 39.855-24.903 14.385c-1.569.919-2.137 2.947-1.218 4.543.919 1.567 2.948 2.109 4.543 1.217 16.142-9.328 32.286-18.658 48.428-27.959a3.756 3.756 0 0 0 1.026-.919l7.381 12.787zM167.23 227.203l-23.309 40.369c-.242-.378-.595-.676-1-.919l-17.765-10.248 23.012-39.855 17.765 10.247c.405.244.837.379 1.297.406zM29.14 174.396c6.437-11.167 20.739-15.007 31.907-8.544 11.167 6.435 15.007 20.738 8.545 31.906-6.436 11.166-20.739 15.007-31.906 8.544-11.168-6.462-15.007-20.739-8.546-31.906zm104.372 111.239c-.919 1.568-2.948 2.109-4.543 1.217l-62.73-36.232c-3.434-2-5.598-5.435-6.247-9.41-.621-3.731.083-7.922 2.245-11.68l31.176-54.053c2.19-3.73 5.489-6.463 9.032-7.787 3.759-1.405 7.814-1.271 11.248.703l62.73 36.232a3.352 3.352 0 0 1 1.244 4.543l-7.382 12.79a3.315 3.315 0 0 0-1.026-.919c-16.142-9.329-32.286-18.631-48.428-27.959-1.595-.92-3.624-.379-4.543 1.217s-.377 3.623 1.218 4.542l16.872 9.734-19.36 33.556a3.32 3.32 0 0 0 1.216 4.543c1.569.92 3.624.378 4.543-1.217l19.36-33.557 2.272 1.325-23.012 39.856-24.903-14.385a3.318 3.318 0 0 0-4.542 1.217 3.32 3.32 0 0 0 1.216 4.543c16.142 9.328 32.286 18.629 48.428 27.958.405.243.838.378 1.298.433l-7.382 12.79zm122.489-25.281c24.875 0 45.02 20.144 45.02 45.02 0 24.85-20.145 45.021-45.02 45.021-24.877 0-45.021-20.172-45.021-45.021-.001-24.877 20.144-45.02 45.021-45.02zm72.274 13.735 21.551-17.169-4.947-8.572-27.688 10.869-15.035-15.033 10.871-27.688-8.572-4.947-18.521 23.253-20.578-5.516-4.408-29.392h-9.895l-4.408 29.392-20.576 5.516-18.523-23.253-8.57 4.947 10.895 27.688-15.059 15.033-27.688-10.869-4.948 8.572 23.254 18.521-5.517 20.549-29.392 4.408v9.924l29.392 4.406 5.517 20.577-23.254 18.522 4.948 8.571 27.688-10.897 15.059 15.062-10.895 27.688 8.57 4.947 18.523-23.254 20.576 5.489 4.408 29.393h9.895l4.408-29.393 20.578-5.489 18.521 23.254 8.572-4.947-10.871-27.688 15.035-15.062 27.688 10.897 4.947-8.571-23.253-18.522 5.516-20.577 29.392-4.406v-9.896l-29.392-4.436-5.516-20.549 1.702-1.352zM142.11 454.576a3.322 3.322 0 0 1-3.325-3.326 3.339 3.339 0 0 1 3.325-3.325h172.972c1.837 0 3.324 1.514 3.324 3.325a3.323 3.323 0 0 1-3.324 3.326H142.11zm252.439-6.651c1.813 0 3.299 1.514 3.299 3.325 0 1.839-1.486 3.326-3.299 3.326h-49.21c-1.813 0-3.327-1.487-3.327-3.326 0-1.812 1.514-3.325 3.327-3.325h49.21zm-61.081 14.006c1.812 0 3.299 1.487 3.299 3.326s-1.487 3.326-3.299 3.326H221.985c-1.839 0-3.327-1.487-3.327-3.326s1.488-3.326 3.327-3.326h111.483zm-252.439 6.652c-1.839 0-3.327-1.487-3.327-3.326s1.488-3.326 3.327-3.326h49.184c1.839 0 3.325 1.487 3.325 3.326s-1.486 3.326-3.325 3.326H81.029zm92.583 0c-1.839 0-3.327-1.487-3.327-3.326s1.488-3.326 3.327-3.326h22.415c1.839 0 3.326 1.487 3.326 3.326s-1.486 3.326-3.326 3.326h-22.415zm38.232-279.153c-1.811 0-3.299-1.515-3.299-3.326v-72.465c0-3.948 1.92-7.545 5.003-10.086 2.92-2.406 6.922-3.92 11.248-3.92h62.408c4.325 0 8.327 1.514 11.221 3.92 3.11 2.541 5.029 6.138 5.029 10.086v72.465c0 1.812-1.487 3.326-3.299 3.326h-14.791c.189-.434.297-.865.297-1.353V132.16c0-1.839-1.486-3.326-3.325-3.326s-3.325 1.487-3.325 3.326v19.495h-38.748c-1.837 0-3.325 1.487-3.325 3.326s1.488 3.325 3.325 3.325h38.748v2.623H232.99v-28.77a3.322 3.322 0 0 0-3.325-3.326 3.323 3.323 0 0 0-3.326 3.326v55.917c0 .487.107.919.297 1.353h-14.792z" fill="#f0821b" class="fill-000000"></path></svg>