<svg viewBox="0 0 512 512" xmlns="http://www.w3.org/2000/svg"><path d="M448 296a8 8 0 0 0 8-8V72a8 8 0 0 0-8-8H64a8 8 0 0 0-8 8v216a8 8 0 0 0 8 8Zm-40-88H288a8 8 0 0 1 0-16h120a8 8 0 0 1 0 16Zm8 32a8 8 0 0 1-8 8H288a8 8 0 0 1 0-16h120a8 8 0 0 1 8 8Zm-8-72H288a8 8 0 0 1 0-16h120a8 8 0 0 1 0 16Zm0-40H288a8 8 0 0 1 0-16h120a8 8 0 0 1 0 16Zm-152-8v120a8 8 0 0 1-8 8H104a8 8 0 0 1-8-8V120a8 8 0 0 1 8-8h144a8 8 0 0 1 8 8Zm232-88a16 16 0 0 1-16 16H40a16 16 0 0 1-16-16 16 16 0 0 1 16-16h432a16 16 0 0 1 16 16Zm0 296a16 16 0 0 1-16 16H267l130.816 138.507a8 8 0 1 1-11.632 10.986L264 364.122V488a8 8 0 0 1-16 0V364.122L125.816 493.493a8 8 0 0 1-11.632-10.986L245 344H40a16 16 0 0 1-16-16 16 16 0 0 1 16-16h432a16 16 0 0 1 16 16Z" fill="#f0821b" class="fill-3b3b3b"></path></svg>