<svg viewBox="0 0 24 24" xmlns="http://www.w3.org/2000/svg"><circle cx="5.143" cy="3.067" r="2.449" fill="#f0821b" class="fill-000000"></circle><path d="M24 13.108a.98.98 0 0 0-.98-.98h-8.326a.245.245 0 0 0-.245.245 2.424 2.424 0 0 1-.394 1.328.25.25 0 0 0 .21.386h1.648a.25.25 0 0 1 .25.25V22.9a.98.98 0 1 0 1.959 0v-8.563a.25.25 0 0 1 .25-.25h4.648a.979.979 0 0 0 .98-.979ZM15.673 9.189a.98.98 0 0 0 0 1.96h4.7a1.965 1.965 0 0 0 1.841-1.29l1.726-4.743a.979.979 0 1 0-1.84-.669l-1.725 4.742Z" fill="#f0821b" class="fill-000000"></path><circle cx="16.898" cy="6.936" r="1.224" fill="#f0821b" class="fill-000000"></circle><path d="M13.441 2.821a5.465 5.465 0 0 1 6.914 0 .735.735 0 0 0 .922-1.144 6.93 6.93 0 0 0-8.759 0 .735.735 0 1 0 .923 1.144Z" fill="#f0821b" class="fill-000000"></path><path d="M19.755 5.071a.734.734 0 0 0-.111-1.033 4.343 4.343 0 0 0-5.493 0 .735.735 0 0 0 .922 1.144 2.882 2.882 0 0 1 3.649 0 .735.735 0 0 0 1.033-.111ZM9.082 18.5a.978.978 0 0 1 .893.578l1.667 3.7a1.469 1.469 0 1 0 2.675-1.217l-1.927-4.239a3.436 3.436 0 0 0-3.121-2.01H7.1a.491.491 0 0 1-.49-.49V12l.836.836a3.405 3.405 0 0 0 2.424 1H12a1.471 1.471 0 0 0 1.469-1.469A1.487 1.487 0 0 0 12 10.9H9.872a.5.5 0 0 1-.346-.144l-3.344-3.34a1.469 1.469 0 0 0-2.508 1.039v6.367a3.381 3.381 0 0 0 .477 1.714h-.865L1.947 8.057a.979.979 0 1 0-1.934.306l1.436 9.1-1.414 5.183a.979.979 0 1 0 1.89.515l1.222-4.481a.25.25 0 0 1 .241-.185Z" fill="#f0821b" class="fill-000000"></path></svg>